<svg width="556" height="368" viewBox="0 0 556 368" fill="none" xmlns="http://www.w3.org/2000/svg">
<g clip-path="url(#clip0_216_62208)">
<ellipse cx="284.376" cy="184.638" rx="165.78" ry="166.417" fill="#F9FAFB"/>
<path d="M-95.0432 213.725C-73.9575 196.259 -43.8207 163.151 20.3206 179.761C82.5562 195.877 104.314 285.514 165.846 249.989" stroke="#4B5563" stroke-width="9.16786"/>
<path d="M173.911 218.119C172.224 215.195 173.225 211.457 176.149 209.77L209.23 190.67L238.262 240.954L205.18 260.054C202.257 261.742 198.519 260.74 196.831 257.817L173.911 218.119Z" fill="#059669"/>
<mask id="mask0_216_62208" style="mask-type:alpha" maskUnits="userSpaceOnUse" x="173" y="190" width="66" height="71">
<path d="M173.911 218.119C172.224 215.195 173.225 211.457 176.149 209.77L209.23 190.67L238.262 240.954L205.18 260.054C202.257 261.742 198.519 260.74 196.831 257.817L173.911 218.119Z" fill="#D9D9D9" fill-opacity="0.4"/>
</mask>
<g mask="url(#mask0_216_62208)">
<path d="M247.447 238.121C203.835 245.704 183.077 221.296 178.15 208.144L160.618 226.264L209.151 272.229L247.447 238.121Z" fill="black" fill-opacity="0.4"/>
</g>
<path d="M206.938 186.7L213.554 182.88L247.169 241.104L240.553 244.924L206.938 186.7Z" fill="#059669"/>
<path d="M206.583 192.198L209.23 190.67L238.261 240.954L235.615 242.482L206.583 192.198Z" fill="black" fill-opacity="0.25"/>
<path d="M161.701 242.811C160.014 239.888 161.015 236.15 163.939 234.462L178.495 226.058L192.246 249.877L177.69 258.281C174.767 259.969 171.029 258.967 169.341 256.044L161.701 242.811Z" fill="#065F46"/>
<mask id="mask1_216_62208" style="mask-type:alpha" maskUnits="userSpaceOnUse" x="160" y="226" width="33" height="34">
<path d="M161.701 242.811C160.014 239.888 161.015 236.15 163.939 234.462L178.495 226.058L192.246 249.877L177.69 258.281C174.767 259.969 171.029 258.967 169.341 256.044L161.701 242.811Z" fill="#D9D9D9" fill-opacity="0.4"/>
</mask>
<g mask="url(#mask1_216_62208)">
<path d="M192.907 249.495C173.667 252.841 164.509 242.072 162.335 236.27L154.6 244.264L176.012 264.543L192.907 249.495Z" fill="black" fill-opacity="0.27"/>
</g>
<path d="M175.848 227.586L178.494 226.058L192.246 249.877L189.599 251.405L175.848 227.586Z" fill="black" fill-opacity="0.3"/>
<path fill-rule="evenodd" clip-rule="evenodd" d="M240.197 229.028C240.683 228.892 241.16 228.694 241.617 228.431L261.466 216.971C264.389 215.283 265.391 211.545 263.703 208.622C262.015 205.698 258.277 204.697 255.354 206.385L235.505 217.844C235.048 218.108 234.638 218.422 234.278 218.775L240.197 229.028Z" fill="#047857"/>
<rect x="240.294" y="229.194" width="12.2238" height="4.58393" transform="rotate(-120 240.294 229.194)" fill="black" fill-opacity="0.2"/>
<path fill-rule="evenodd" clip-rule="evenodd" d="M226.446 205.209C226.932 205.074 227.409 204.876 227.866 204.612L247.715 193.152C250.638 191.464 251.64 187.726 249.952 184.803C248.264 181.88 244.526 180.878 241.603 182.566L221.754 194.026C221.297 194.289 220.887 194.603 220.527 194.956L226.446 205.209Z" fill="#047857"/>
<rect x="226.543" y="205.376" width="12.2238" height="4.58393" transform="rotate(-120 226.543 205.376)" fill="black" fill-opacity="0.2"/>
<path d="M651.043 155.252C629.957 172.719 599.821 205.826 535.679 189.216C473.444 173.1 451.686 83.4631 390.154 118.989" stroke="#4B5563" stroke-width="9.16786"/>
<path d="M382.089 150.858C383.776 153.782 382.775 157.52 379.851 159.207L346.77 178.307L317.738 128.023L350.82 108.923C353.743 107.235 357.481 108.237 359.169 111.16L382.089 150.858Z" fill="#059669"/>
<mask id="mask2_216_62208" style="mask-type:alpha" maskUnits="userSpaceOnUse" x="317" y="108" width="66" height="71">
<path d="M382.089 150.858C383.776 153.782 382.775 157.52 379.851 159.207L346.77 178.307L317.738 128.023L350.82 108.923C353.743 107.235 357.481 108.237 359.169 111.16L382.089 150.858Z" fill="#D9D9D9" fill-opacity="0.4"/>
</mask>
<g mask="url(#mask2_216_62208)">
<path d="M308.553 130.856C352.165 123.273 372.923 147.681 377.85 160.833L395.382 142.713L346.849 96.748L308.553 130.856Z" fill="black" fill-opacity="0.4"/>
</g>
<path d="M349.062 182.277L342.446 186.097L308.831 127.873L315.447 124.053L349.062 182.277Z" fill="#059669"/>
<path d="M349.417 176.779L346.77 178.307L317.739 128.023L320.385 126.495L349.417 176.779Z" fill="black" fill-opacity="0.25"/>
<path d="M394.299 126.165C395.986 129.089 394.985 132.827 392.061 134.514L377.505 142.918L363.754 119.1L378.31 110.696C381.233 109.008 384.971 110.009 386.659 112.933L394.299 126.165Z" fill="#065F46"/>
<mask id="mask3_216_62208" style="mask-type:alpha" maskUnits="userSpaceOnUse" x="363" y="109" width="33" height="34">
<path d="M394.299 126.165C395.986 129.089 394.985 132.827 392.061 134.514L377.505 142.918L363.754 119.1L378.31 110.696C381.233 109.008 384.971 110.009 386.659 112.933L394.299 126.165Z" fill="#D9D9D9" fill-opacity="0.4"/>
</mask>
<g mask="url(#mask3_216_62208)">
<path d="M363.093 119.481C382.333 116.136 391.491 126.904 393.665 132.707L401.4 124.712L379.988 104.434L363.093 119.481Z" fill="black" fill-opacity="0.27"/>
</g>
<path d="M380.152 141.39L377.506 142.918L363.754 119.099L366.401 117.571L380.152 141.39Z" fill="black" fill-opacity="0.3"/>
<path d="M308.605 273.433L308.605 255.097" stroke="#10B981" stroke-width="7.63989" stroke-linecap="round"/>
<path d="M339.906 259.682L326.941 246.716" stroke="#10B981" stroke-width="7.63989" stroke-linecap="round"/>
<path d="M351.389 229.122L333.053 229.122" stroke="#10B981" stroke-width="7.63989" stroke-linecap="round"/>
<path d="M268.309 97.3691L263.563 115.08" stroke="#10B981" stroke-width="7.63989" stroke-linecap="round"/>
<path d="M234.514 102.551L243.682 118.43" stroke="#10B981" stroke-width="7.63989" stroke-linecap="round"/>
<path d="M215.514 129.097L233.225 133.843" stroke="#10B981" stroke-width="7.63989" stroke-linecap="round"/>
</g>
<defs>
<clipPath id="clip0_216_62208">
<rect width="556" height="367.266" fill="white" transform="translate(0 0.367188)"/>
</clipPath>
</defs>
</svg>
